<svg xmlns="http://www.w3.org/2000/svg"  viewBox="0 0 100 100" width="100px" height="100px"><path fill="#c7ede6" d="M87.215,56.71C88.35,54.555,89,52.105,89,49.5c0-6.621-4.159-12.257-10.001-14.478C78.999,35.015,79,35.008,79,35c0-11.598-9.402-21-21-21c-9.784,0-17.981,6.701-20.313,15.757C36.211,29.272,34.638,29,33,29c-7.692,0-14.023,5.793-14.89,13.252C12.906,43.353,9,47.969,9,53.5C9,59.851,14.149,65,20.5,65c0.177,0,0.352-0.012,0.526-0.022C21.022,65.153,21,65.324,21,65.5C21,76.822,30.178,86,41.5,86c6.437,0,12.175-2.972,15.934-7.614C59.612,80.611,62.64,82,66,82c4.65,0,8.674-2.65,10.666-6.518C77.718,75.817,78.837,76,80,76c6.075,0,11-4.925,11-11C91,61.689,89.53,58.727,87.215,56.71z"/><path fill="#fff" d="M15.5 51h-10C5.224 51 5 50.776 5 50.5S5.224 50 5.5 50h10c.276 0 .5.224.5.5S15.777 51 15.5 51zM18.5 51h-1c-.276 0-.5-.224-.5-.5s.224-.5.5-.5h1c.276 0 .5.224.5.5S18.777 51 18.5 51zM23.491 53H14.5c-.276 0-.5-.224-.5-.5s.224-.5.5-.5h8.991c.276 0 .5.224.5.5S23.767 53 23.491 53zM12.5 53h-1c-.276 0-.5-.224-.5-.5s.224-.5.5-.5h1c.276 0 .5.224.5.5S12.777 53 12.5 53zM9.5 53h-2C7.224 53 7 52.776 7 52.5S7.224 52 7.5 52h2c.276 0 .5.224.5.5S9.777 53 9.5 53zM15.5 55h-2c-.276 0-.5-.224-.5-.5s.224-.5.5-.5h2c.276 0 .5.224.5.5S15.776 55 15.5 55zM18.5 46c-.177 0-.823 0-1 0-.276 0-.5.224-.5.5s.224.5.5.5c.177 0 .823 0 1 0 .276 0 .5-.224.5-.5S18.776 46 18.5 46zM18.5 48c-.177 0-4.823 0-5 0-.276 0-.5.224-.5.5s.224.5.5.5c.177 0 4.823 0 5 0 .276 0 .5-.224.5-.5S18.776 48 18.5 48zM23.5 50c-.177 0-2.823 0-3 0-.276 0-.5.224-.5.5s.224.5.5.5c.177 0 2.823 0 3 0 .276 0 .5-.224.5-.5S23.776 50 23.5 50zM72.5 24h-10c-.276 0-.5-.224-.5-.5s.224-.5.5-.5h10c.276 0 .5.224.5.5S72.776 24 72.5 24zM76.5 24h-2c-.276 0-.5-.224-.5-.5s.224-.5.5-.5h2c.276 0 .5.224.5.5S76.776 24 76.5 24zM81.5 26h-10c-.276 0-.5-.224-.5-.5s.224-.5.5-.5h10c.276 0 .5.224.5.5S81.777 26 81.5 26zM69.5 26h-1c-.276 0-.5-.224-.5-.5s.224-.5.5-.5h1c.276 0 .5.224.5.5S69.776 26 69.5 26zM66.47 26H64.5c-.276 0-.5-.224-.5-.5s.224-.5.5-.5h1.97c.276 0 .5.224.5.5S66.746 26 66.47 26zM75.5 22h-5c-.276 0-.5-.224-.5-.5s.224-.5.5-.5h5c.276 0 .5.224.5.5S75.777 22 75.5 22zM72.5 28h-2c-.276 0-.5-.224-.5-.5s.224-.5.5-.5h2c.276 0 .5.224.5.5S72.776 28 72.5 28z"/><g><path fill="#fdfcef" d="M80.875,60.5c0,0,4.64,0,7.125,0s4.5-2.015,4.5-4.5c0-2.333-1.782-4.229-4.055-4.455C88.467,51.364,88.5,51.187,88.5,51c0-2.485-2.015-4.5-4.5-4.5c-1.438,0-2.703,0.686-3.527,1.736C80.333,45.6,78.171,43.5,75.5,43.5c-2.761,0-5,2.239-5,5c0,0.446,0.077,0.87,0.187,1.282C70.045,49.005,69.086,48.5,68,48.5c-1.781,0-3.234,1.335-3.455,3.055C64.364,51.533,64.187,51.5,64,51.5c-2.485,0-4.5,2.015-4.5,4.5s2.015,4.5,4.5,4.5s9.5,0,9.5,0H80.875z"/><path fill="#472b29" d="M75.5,43c-3.033,0-5.5,2.467-5.5,5.5c0,0.016,0,0.031,0,0.047C69.398,48.192,68.71,48,68,48c-1.831,0-3.411,1.261-3.858,3.005C64.095,51.002,64.048,51,64,51c-2.757,0-5,2.243-5,5s2.243,5,5,5h14.5c0.276,0,0.5-0.224,0.5-0.5S78.776,60,78.5,60H64c-2.206,0-4-1.794-4-4s1.794-4,4-4c0.117,0,0.23,0.017,0.343,0.032l0.141,0.019c0.021,0.003,0.041,0.004,0.062,0.004c0.246,0,0.462-0.185,0.495-0.437C65.232,50.125,66.504,49,68,49c0.885,0,1.723,0.401,2.301,1.1c0.098,0.118,0.241,0.182,0.386,0.182c0.078,0,0.156-0.018,0.228-0.056c0.209-0.107,0.314-0.346,0.254-0.573C71.054,49.218,71,48.852,71,48.5c0-2.481,2.019-4.5,4.5-4.5c2.381,0,4.347,1.872,4.474,4.263c0.011,0.208,0.15,0.387,0.349,0.45c0.05,0.016,0.101,0.024,0.152,0.024c0.15,0,0.296-0.069,0.392-0.192C81.638,47.563,82.779,47,84,47c2.206,0,4,1.794,4,4c0,0.117-0.017,0.23-0.032,0.343l-0.019,0.141c-0.016,0.134,0.022,0.268,0.106,0.373s0.207,0.172,0.34,0.185C90.451,52.247,92,53.949,92,56c0,2.206-1.794,4-4,4h-6.5c-0.276,0-0.5,0.224-0.5,0.5s0.224,0.5,0.5,0.5H88c2.757,0,5-2.243,5-5c0-2.397-1.689-4.413-4.003-4.877C88.999,51.082,89,51.041,89,51c0-2.757-2.243-5-5-5c-1.176,0-2.293,0.416-3.183,1.164C80.219,44.76,78.055,43,75.5,43L75.5,43z"/><path fill="#472b29" d="M74 50c-1.403 0-2.609.999-2.913 2.341C70.72 52.119 70.301 52 69.875 52c-1.202 0-2.198.897-2.353 2.068C67.319 54.022 67.126 54 66.938 54c-1.529 0-2.811 1.2-2.918 2.732C64.01 56.87 64.114 56.99 64.251 57c.006 0 .012 0 .018 0 .13 0 .24-.101.249-.232.089-1.271 1.151-2.268 2.419-2.268.229 0 .47.042.738.127.022.007.045.01.067.01.055 0 .11-.02.156-.054C67.962 54.537 68 54.455 68 54.375c0-1.034.841-1.875 1.875-1.875.447 0 .885.168 1.231.473.047.041.106.063.165.063.032 0 .063-.006.093-.019.088-.035.148-.117.155-.212C71.623 51.512 72.712 50.5 74 50.5c.208 0 .425.034.682.107.023.007.047.01.07.01.109 0 .207-.073.239-.182.038-.133-.039-.271-.172-.309C74.517 50.04 74.256 50 74 50L74 50zM87.883 51.5c-1.326 0-2.508.897-2.874 2.182-.038.133.039.271.172.309C85.205 53.997 85.228 54 85.25 54c.109 0 .209-.072.24-.182C85.795 52.748 86.779 52 87.883 52c.117 0 .23.014.342.029.012.002.023.003.035.003.121 0 .229-.092.246-.217.019-.137-.077-.263-.214-.281C88.158 51.516 88.022 51.5 87.883 51.5L87.883 51.5z"/></g><g><path fill="#ee3e54" d="M75.5,41v21c0,5.24-4.26,9.5-9.5,9.5H44.22l-0.15,0.24c-2.66,4.45-6.4,6.5-12.36,6.74C34.86,75.19,35,74.05,35,72v-0.5h-1c-2.54,0-4.92-0.99-6.72-2.78c-1.79-1.8-2.78-4.18-2.78-6.72V41c0-5.24,4.26-9.5,9.5-9.5h32C71.24,31.5,75.5,35.76,75.5,41z"/><path fill="#472b29" d="M66,32.4c4.742,0,8.6,3.858,8.6,8.6v21c0,4.742-3.858,8.6-8.6,8.6H44.5c-0.492,0-0.947,0.258-1.2,0.68c-2.179,3.631-5.022,5.523-9.415,6.114C35.792,75.059,35.9,73.838,35.9,72c0-0.773-0.627-1.4-1.4-1.4H34c-2.297,0-4.457-0.894-6.081-2.518c-1.624-1.624-2.519-3.783-2.519-6.08L25.4,50v-9c0-4.742,3.858-8.6,8.6-8.6H66 M66,31H34c-5.523,0-10,4.477-10,10v9c0,1.89,0,7.117,0,12.002C24,67.524,28.477,72,34,72h0.5c0,2,0,3-4,7c6.709,0,11-2,14-7H66c5.523,0,10-4.477,10-10V41C76,35.477,71.523,31,66,31L66,31z"/><path fill="#472b29" d="M66.5 68h-11c-.276 0-.5-.224-.5-.5s.224-.5.5-.5h11c2.481 0 4.5-2.019 4.5-4.5v-22c0-2.481-2.019-4.5-4.5-4.5h-33c-2.481 0-4.5 2.019-4.5 4.5v21c0 .276-.224.5-.5.5S28 61.776 28 61.5v-21c0-3.033 2.467-5.5 5.5-5.5h33c3.032 0 5.5 2.467 5.5 5.5v22C72 65.532 69.532 68 66.5 68zM46.5 68h-2c-.276 0-.5-.224-.5-.5s.224-.5.5-.5h2c.276 0 .5.224.5.5S46.776 68 46.5 68z"/><path fill="#472b29" d="M52.5,68h-3c-0.276,0-0.5-0.224-0.5-0.5s0.224-0.5,0.5-0.5h3c0.276,0,0.5,0.224,0.5,0.5S52.776,68,52.5,68z"/></g><g><path fill="#fdfcef" d="M30.5,71.5c0,0,1.567,0,3.5,0s3.5-1.567,3.5-3.5c0-1.781-1.335-3.234-3.055-3.455C34.473,64.366,34.5,64.187,34.5,64c0-1.933-1.567-3.5-3.5-3.5c-1.032,0-1.95,0.455-2.59,1.165c-0.384-1.808-1.987-3.165-3.91-3.165c-2.209,0-4,1.791-4,4c0,0.191,0.03,0.374,0.056,0.558C20.128,62.714,19.592,62.5,19,62.5c-1.228,0-2.245,0.887-2.455,2.055C16.366,64.527,16.187,64.5,16,64.5c-1.933,0-3.5,1.567-3.5,3.5s1.567,3.5,3.5,3.5s7.5,0,7.5,0"/><path fill="#472b29" d="M32.25 67C32.112 67 32 66.888 32 66.75c0-1.223.995-2.218 2.218-2.218.034.009.737-.001 1.244.136.133.036.212.173.176.306-.036.134-.173.213-.306.176-.444-.12-1.1-.12-1.113-.118-.948 0-1.719.771-1.719 1.718C32.5 66.888 32.388 67 32.25 67zM25.5 71A.5.5 0 1 0 25.5 72 .5.5 0 1 0 25.5 71z"/><path fill="#472b29" d="M34,72h-3.5c-0.276,0-0.5-0.224-0.5-0.5s0.224-0.5,0.5-0.5H34c1.654,0,3-1.346,3-3c0-1.496-1.125-2.768-2.618-2.959c-0.134-0.018-0.255-0.088-0.336-0.196s-0.115-0.244-0.094-0.377C33.975,64.314,34,64.16,34,64c0-1.654-1.346-3-3-3c-0.85,0-1.638,0.355-2.219,1c-0.125,0.139-0.321,0.198-0.5,0.148c-0.182-0.049-0.321-0.195-0.36-0.379C27.58,60.165,26.141,59,24.5,59c-1.93,0-3.5,1.57-3.5,3.5c0,0.143,0.021,0.28,0.041,0.418c0.029,0.203-0.063,0.438-0.242,0.54s-0.396,0.118-0.556-0.01C19.878,63.155,19.449,63,19,63c-0.966,0-1.792,0.691-1.963,1.644c-0.048,0.267-0.296,0.446-0.569,0.405C16.314,65.025,16.16,65,16,65c-1.654,0-3,1.346-3,3s1.346,3,3,3h7.5c0.276,0,0.5,0.224,0.5,0.5S23.776,72,23.5,72H16c-2.206,0-4-1.794-4-4s1.794-4,4-4c0.059,0,0.116,0.002,0.174,0.006C16.588,62.82,17.711,62,19,62c0.349,0,0.689,0.061,1.011,0.18C20.176,59.847,22.126,58,24.5,58c1.831,0,3.466,1.127,4.153,2.774C29.333,60.276,30.155,60,31,60c2.206,0,4,1.794,4,4c0,0.048-0.001,0.095-0.004,0.142C36.739,64.59,38,66.169,38,68C38,70.206,36.206,72,34,72z"/><path fill="#472b29" d="M28.5,71c-0.159,0-0.841,0-1,0c-0.276,0-0.5,0.224-0.5,0.5s0.224,0.5,0.5,0.5c0.159,0,0.841,0,1,0c0.276,0,0.5-0.224,0.5-0.5S28.776,71,28.5,71z"/></g></svg>